<svg id="canvas" height="auto" xmlns="http://www.w3.org/2000/svg" version="1.1" xmlns:xlink="http://www.w3.org/1999/xlink" xmlns:svgjs="http://svgjs.dev/svgjs" viewBox="0 0 900 512" width="auto" style="width: auto; height: auto;"><rect width="900" height="512" fill="#000000"/><g stroke-opacity="1" stroke="#584c4c" transform="matrix(1,0,0,1,62.50256151396472,71.20534960716287)"><path d="M88.51785138926526,-1.5340888160843988C94.05894650141539,21.249509678700118,95.80618875900122,53.18430480695299,70.12005293112732,63.54355806577388C44.43391710325342,73.90281132459477,-37.63624642279025,70.49901887690436,-65.59896357797814,60.62143073684095C-93.56168073316603,50.74384259677755,-100.45275845388153,31.599522460409393,-97.65625,4.2780292253934675C-94.85974154611847,-23.043464009622458,-71.24153489772675,-90.4015183185335,-48.81991285468899,-103.30752867325462C-26.39829081165123,-116.21353902797574,13.983854884234159,-90.12027287912827,36.87348225822653,-73.15803290293323C59.7631096322189,-56.19579292673819,82.97675627711513,-24.317687310868916,88.51785138926526,-1.5340888160843988C94.05894650141539,21.249509678700118,95.80618875900122,53.18430480695299,70.12005293112732,63.54355806577388" fill-opacity="0.25" fill="#584c4c"/></g><g stroke-opacity="1" stroke="#584c4c" transform="matrix(1,0,0,1,32.0860630766695,200.47657248165314)"><path d="M69.53495729054225,-24.212737686297125C76.90088455625812,7.588224280491584,111.36680404263407,88.10205662497127,93.02368859429517,106.23297846240814C74.68057314595626,124.36390029984501,-7.978526755005042,106.29813690170745,-40.523735399491144,84.57279333832409C-73.06894404397724,62.84744977494073,-100.86349833920332,8.089332851786292,-102.24756327262146,-24.119082917892054C-103.63162820603961,-56.3274986875704,-74.00740637877027,-98.60208287634063,-48.82812500000004,-108.67770127974597C-23.648843621229812,-118.75331968315132,29.100944618242888,-98.6502872705656,48.828124999999936,-84.57279333832412C68.55530538175698,-70.49529940608264,62.169030024826384,-56.01369965308584,69.53495729054225,-24.212737686297125C76.90088455625812,7.588224280491584,111.36680404263407,88.10205662497127,93.02368859429517,106.23297846240814" fill-opacity="0.25" fill="#584c4c"/></g><g stroke-opacity="1" stroke="#584c4c" transform="matrix(1,0,0,1,31.65826896189357,330.6706502709174)"><path d="M76.80041096697614,-21.43743849587363C71.54588635205931,6.484536144382709,54.30861879235811,79.23234760756824,30.514669883629146,96.90071957993453C6.720720974900182,114.56909155230082,-47.9878106113992,96.67113218105956,-65.96328248539763,84.57279333832409C-83.93875435939606,72.47445449558862,-80.08828856878957,52.50161763629636,-77.33816136036143,24.310686523521667C-74.58803415193329,-3.8802445892530244,-72.69251572374402,-68.7491575408032,-49.46251923482877,-84.57279333832406C-26.23252274591351,-100.39642913584493,40.99799587282931,-81.1536874020119,62.041817573130125,-70.6311282616035C83.08563927343094,-60.10856912119509,82.05493558189298,-49.359413136129966,76.80041096697614,-21.43743849587363C71.54588635205931,6.484536144382709,54.30861879235811,79.23234760756824,30.514669883629146,96.90071957993453" fill-opacity="0.25" fill="#584c4c"/></g><g stroke-opacity="1" stroke="#584c4c" transform="matrix(1,0,0,1,28.900508040471077,431.7159274865119)"><path d="M116.97646335352154,-15.14584027578384C121.1969073054502,23.225448719575645,82.361829450529,111.93393136067856,58.2219643752835,124.89195037455028C34.082099300038,137.84996938842198,-4.803639874322183,80.150550122149,-27.862727097951435,62.60227380744649C-50.92181432158068,45.053997492743974,-77.04145994250631,48.02112691271999,-80.13255896649201,19.602292486335173C-83.22365799047772,-8.816541940049643,-65.24796451356629,-87.08772007020542,-46.40932124186569,-107.9107327508624C-27.570677970165097,-128.73374543151937,5.668336564480338,-120.79659901011973,32.89930066371154,-105.33578359760665C60.130264762942744,-89.87496818509356,112.75601940159288,-53.517129271143325,116.97646335352154,-15.14584027578384C121.1969073054502,23.225448719575645,82.361829450529,111.93393136067856,58.2219643752835,124.89195037455028" fill-opacity="0.25" fill="#584c4c"/></g><g stroke-opacity="1" stroke="#584c4c" transform="matrix(1,0,0,1,193.28220159998992,38.56651204649603)"><path d="M113.96886920804431,-7.4439446082437755C109.98737712535268,18.376889091974498,65.29576202379832,65.04479532690824,35.735427645260685,81.44229507665426C6.175093266723053,97.83979482640028,-41.22967463531305,104.11715444735646,-63.39313706318149,90.94105389023234C-85.55659949104992,77.76495333310822,-99.67284893248019,35.76939306620354,-97.24534692194995,2.385691733909539C-94.8178449114197,-30.998009598384463,-74.97307951056011,-96.71642096043753,-48.82812500000004,-109.36115410353169C-22.68317048943997,-122.00588724662585,32.4915477734031,-90.46890870720337,59.62438014141049,-73.48270712465538C86.75721250941788,-56.496505542107386,117.95036129073594,-33.26477830846205,113.96886920804431,-7.4439446082437755C109.98737712535268,18.376889091974498,65.29576202379832,65.04479532690824,35.735427645260685,81.44229507665426" fill-opacity="0.25" fill="#584c4c"/></g><g stroke-opacity="1" stroke="#584c4c" transform="matrix(1,0,0,1,143.99778076676873,195.22400318876097)"><path d="M122.01878257478576,7.961701792383572C122.37308832997347,36.550377090748164,54.96389697321867,33.584507910786726,27.461779870088584,42.92038184500736C-0.04033723304149461,52.256255779228,-24.109205632477977,74.26952429858905,-42.99392004399473,63.9769453977074C-61.878634455511474,53.684366496825746,-81.01871624164718,5.910227438110375,-85.8465065990119,-18.835091560282528C-90.67429695637662,-43.58041055867543,-90.49107084451212,-66.19887219516708,-71.96066218818308,-84.49496859265003C-53.430253531854035,-102.79106499013297,-6.993962121532483,-144.02111500935246,25.335945338962325,-128.61166994518018C57.665852799457134,-113.20222488100792,121.66447681959805,-20.62697350598102,122.01878257478576,7.961701792383572C122.37308832997347,36.550377090748164,54.96389697321867,33.584507910786726,27.461779870088584,42.92038184500736" fill-opacity="0.25" fill="#584c4c"/></g><g stroke-opacity="1" stroke="#584c4c" transform="matrix(1,0,0,1,153.54606622111493,346.9437157173395)"><path d="M113.14997741478709,-24.362313105691594C113.61875081754955,0.7270198207459728,76.93132540202375,67.79869372395623,56.3239255673109,85.95454479795885C35.71652573259806,104.11039587196146,12.45822814234661,98.95964343602023,-10.494421593490003,84.57279333832409C-33.44707132932662,70.18594324062795,-78.22987648147867,24.287843189648065,-81.39197284770877,-0.36655578821797263C-84.55406921393887,-25.02095476608401,-51.950876123944724,-52.651117700130705,-29.466999790870574,-63.353600528872136C-6.983123457796424,-74.05608335761357,29.74178894979318,-71.08000066452999,53.51128515073612,-64.58145276066656C77.28078135167907,-58.08290485680314,112.68120401202462,-49.45164603212916,113.14997741478709,-24.362313105691594C113.61875081754955,0.7270198207459728,76.93132540202375,67.79869372395623,56.3239255673109,85.95454479795885" fill-opacity="0.25" fill="#584c4c"/></g><g stroke-opacity="1" stroke="#584c4c" transform="matrix(1,0,0,1,168.00918323019368,449.16566916243005)"><path d="M93.99677578414025,-18.828082202727945C96.49504245470351,5.699209270902344,71.43076426367132,66.47364949937906,47.62661413298128,84.57279333832406C23.822464002291245,102.67193717726906,-21.549228902318646,103.92584305507883,-48.82812499999997,89.766780830942C-76.1070210976813,75.60771860680516,-112.54938859572162,25.9117663532283,-116.04676245310667,-0.38158000649691814C-119.54413631049171,-26.674926366222135,-94.59299757142827,-57.625068077915834,-69.81236814431021,-67.9932973274093C-45.031738717192155,-78.36152657690275,5.3354901215266395,-70.78515802423789,32.637014109601715,-62.590955503457664C59.93853809767679,-54.39675298267744,91.498509113577,-43.355373676358234,93.99677578414025,-18.828082202727945C96.49504245470351,5.699209270902344,71.43076426367132,66.47364949937906,47.62661413298128,84.57279333832406" fill-opacity="0.25" fill="#584c4c"/></g><g stroke-opacity="1" stroke="#584c4c" transform="matrix(1,0,0,1,292.0198126021644,84.90192785844364)"><path d="M113.92923661606669,1.5793046517959368C115.60554571859274,28.433061009924742,77.82148971745042,53.237722715634646,50.33026921010948,72.01859320718364C22.83904870276854,90.79946369873264,-32.59215362254057,126.26762646895384,-51.01808642797893,114.2645276010899C-69.4440192334173,102.26142873322596,-63.86349636906792,29.07914192940311,-60.225327622520666,1.4210854715202004e-14C-56.587158875973415,-29.079141929403082,-45.93869765160774,-45.35966648506384,-29.189073948695437,-60.210323975328706C-12.439450245783132,-75.06098146559357,16.419362834159482,-99.40221637944329,40.27241459495317,-89.10394494158918C64.12546635574685,-78.80567350373506,112.25292751354064,-25.27445170633287,113.92923661606669,1.5793046517959368C115.60554571859274,28.433061009924742,77.82148971745042,53.237722715634646,50.33026921010948,72.01859320718364" fill-opacity="0.25" fill="#584c4c"/></g><g stroke-opacity="1" stroke="#584c4c" transform="matrix(1,0,0,1,280.9922290419093,222.86003432893457)"><path d="M82.41917507488425,37.94177591524333C88.08497502709916,73.94946536703421,116.80068046087449,96.14163045537273,97.55269777607859,110.99180139152732C78.30471509128269,125.8419723276819,-3.5416470316132767,142.879174506763,-33.06872103389112,127.04280153217083C-62.595795036168965,111.20642855757865,-80.54762097857102,49.38003666541298,-79.60974623758851,15.973563543974251C-78.671871496606,-17.43290957746448,-51.302746638059034,-53.224720719262834,-27.441472587996103,-73.39603719646153C-3.5801985379331676,-93.56735367366024,45.24779011897572,-123.6106375045021,63.557898062789114,-105.05433531921796C81.86800600660251,-86.49803313393382,76.75337512266934,1.9340864634524593,82.41917507488425,37.94177591524333C88.08497502709916,73.94946536703421,116.80068046087449,96.14163045537273,97.55269777607859,110.99180139152732" fill-opacity="0.25" fill="#584c4c"/></g><g stroke-opacity="1" stroke="#584c4c" transform="matrix(1,0,0,1,270.5494382786256,304.565561213871)"><path d="M98.81971672955444,16.17366715400471C88.30106997904709,38.523847725638326,37.75373162398425,46.463782330320434,10.068505267225596,60.28738863495687C-17.616721089533055,74.11099493959331,-46.25162463330143,112.44857819173382,-67.29164141099747,99.11530498182333C-88.33165818869351,85.78203177191284,-115.18843055204917,13.598312426187952,-116.17159539895066,-19.712250624506026C-117.15476024585215,-53.022813675200005,-104.74929402060981,-91.73116596061742,-73.1906304924064,-100.74807332234055C-41.63196696420299,-109.76498068406367,44.51199456660963,-93.30065154090236,73.18038577026977,-73.81369479484482C101.8487769739299,-54.32673804878728,109.3383634800618,-6.176513417628904,98.81971672955444,16.17366715400471C88.30106997904709,38.523847725638326,37.75373162398425,46.463782330320434,10.068505267225596,60.28738863495687" fill-opacity="0.25" fill="#584c4c"/></g><g stroke-opacity="1" stroke="#584c4c" transform="matrix(1,0,0,1,277.83464910377626,429.95050513788635)"><path d="M137.64911701611646,43.52496579495833C130.04462055480641,72.42778034436913,54.56102017521199,89.99284417459548,24.481089229675966,98.63265490090117C-5.598841715860065,107.27246562720687,-18.590649135713452,109.98432089575606,-42.83046865709971,95.36383015279253C-67.07028817848597,80.743339409829,-124.00441681591366,38.728669479544585,-120.95782789864157,10.909710443119998C-117.91123898136948,-16.90924859330459,-56.39525113616351,-57.26760025930773,-24.550935153467194,-71.549924065755C7.293380829229118,-85.83224787220226,43.07472596927235,-93.9633807056825,70.1080679975363,-74.7842323955636C97.14141002580024,-55.605084085444716,145.2536134774265,14.622151245547531,137.64911701611646,43.52496579495833C130.04462055480641,72.42778034436913,54.56102017521199,89.99284417459548,24.481089229675966,98.63265490090117" fill-opacity="0.25" fill="#584c4c"/></g><g stroke-opacity="1" stroke="#584c4c" transform="matrix(1,0,0,1,408.82629180837256,44.990963873638336)"><path d="M77.15566148110977,24.33003692866246C73.30081736038429,55.82112402784716,45.49598777622404,92.52926744253648,24.487873205648278,105.42081070375062C3.4797586350725105,118.31235396496476,-27.81928951144356,121.61174152037556,-48.89302594234481,101.67929649594731C-69.96676237324607,81.74685147151907,-102.9324466922416,18.408536428040797,-101.95454537975925,-14.17385944281888C-100.97664406727691,-46.75625531367856,-67.95419861907747,-82.25643665445432,-43.02561806745072,-93.81507872921077C-18.097037515823974,-105.37372080396722,27.58672467190782,-103.21656450100315,47.616937930001235,-83.52571189135762C67.64715118809465,-63.834859281712085,81.01050560183526,-7.161050170522248,77.15566148110977,24.33003692866246C73.30081736038429,55.82112402784716,45.49598777622404,92.52926744253648,24.487873205648278,105.42081070375062" fill-opacity="0.25" fill="#584c4c"/></g><g stroke-opacity="1" stroke="#584c4c" transform="matrix(1,0,0,1,416.1621839505686,170.67985172332473)"><path d="M98.12047140579178,-34.42364643593014C103.6466732611852,-0.03551910314239137,72.1640105552649,78.6482362766531,48.828125000000014,102.50025636329639C25.492239444735137,126.35227644993968,-13.476496187632577,123.39966756843054,-41.89484192579748,108.68847408392958C-70.31318766396238,93.97728059942861,-121.02791145565214,42.74169948732792,-121.68194942898938,14.233095456290627C-122.33598740232662,-14.275508574746663,-68.71121364859238,-42.68621625400737,-45.81906976582089,-62.363150102294156C-22.92692588304941,-82.04008395058094,-8.319009660962601,-108.4850915778241,15.670913867639507,-103.82850763343009C39.66083739624162,-99.17192368903609,92.59426955039835,-68.81177376871788,98.12047140579178,-34.42364643593014C103.6466732611852,-0.03551910314239137,72.1640105552649,78.6482362766531,48.828125000000014,102.50025636329639" fill-opacity="0.25" fill="#584c4c"/></g><g stroke-opacity="1" stroke="#584c4c" transform="matrix(1,0,0,1,382.3602160176636,290.73319040753057)"><path d="M97.69202173719393,48.725055195100644C92.49134343845414,80.78776535393192,29.058295595378812,81.70623447506267,5.59993491274441,88.1656296298911C-17.858425769889994,94.62502478471953,-22.403370879124356,107.80013887330497,-43.05814235861249,87.48142612407119C-63.71291383810063,67.16271337483741,-113.31573127750235,-5.070943621779044,-118.3286939641844,-33.746646865511586C-123.34165665086644,-62.42235010924413,-98.9913682569327,-72.82879592872658,-73.13591847870478,-84.57279333832406C-47.28046870047686,-96.31679074792154,8.332681335866717,-126.42693941200059,36.80400470518317,-104.21063132309648C65.27532807449961,-81.99432323419236,102.89270003593371,16.66234503626938,97.69202173719393,48.725055195100644C92.49134343845414,80.78776535393192,29.058295595378812,81.70623447506267,5.59993491274441,88.1656296298911" fill-opacity="0.25" fill="#584c4c"/></g><g stroke-opacity="1" stroke="#584c4c" transform="matrix(1,0,0,1,384.9060304721028,426.2831977225759)"><path d="M121.39445095693854,-9.923493462836532C124.73442094455856,25.898908066228778,99.95820556241516,90.25155300091008,64.18646438867232,106.00093413443685C28.41472321492948,121.75031526796361,-69.87206899953273,96.32716377445645,-93.2359960855185,84.57279333832409C-116.59992317150426,72.81842290219173,-84.55215829878897,61.64391494277261,-75.99709812724225,35.4747115176427C-67.44203795569554,9.305508092512795,-61.92959215460395,-48.3743961195224,-41.90563505623822,-72.44242721245536C-21.88167795787248,-96.51045830538831,16.929963460756035,-119.35329733155814,44.14664446295216,-108.933475039955C71.36332546514828,-98.51365274835186,118.05448096931852,-45.74589499190184,121.39445095693854,-9.923493462836532C124.73442094455856,25.898908066228778,99.95820556241516,90.25155300091008,64.18646438867232,106.00093413443685" fill-opacity="0.25" fill="#584c4c"/></g><g stroke-opacity="1" stroke="#584c4c" transform="matrix(1,0,0,1,517.0821715234194,88.32787266078378)"><path d="M52.37520580091463,-4.925683267939C50.30811635019591,28.700057547877805,69.45867579030408,86.26271329791145,53.20733601316823,104.69460957948567C36.95599623603238,123.1265058610599,-21.796691223701988,123.14170401202867,-45.13283286190048,105.66569442150632C-68.46897450009898,88.18968483098396,-82.85914048625334,33.216106296813955,-86.80951381602272,-0.16144796364847025C-90.75988714579209,-33.539002224110895,-94.23830392943397,-78.44989991597376,-68.83507284051676,-94.5996311412682C-43.43184175159955,-110.74936236656265,45.408159610575325,-112.00549329430338,65.60987271748056,-97.05983531541517C85.81158582438579,-82.11417733652696,54.44229525163335,-38.551424083755805,52.37520580091463,-4.925683267939C50.30811635019591,28.700057547877805,69.45867579030408,86.26271329791145,53.20733601316823,104.69460957948567" fill-opacity="0.25" fill="#584c4c"/></g><g stroke-opacity="1" stroke="#584c4c" transform="matrix(1,0,0,1,480.5370620130255,171.17994195838543)"><path d="M100.34351848032401,4.669892875297329C98.97107752371593,36.68163000969841,85.07963888399084,90.83859680507962,60.8891415213844,107.4976294680824C36.69864415877797,124.15666213108517,-21.284383767636314,120.66998992290173,-44.79946569531464,104.62408885331399C-68.31454762299296,88.57818778372625,-79.529906827238,43.16954118822754,-80.20135004468555,11.222223050555925C-80.87279326213311,-20.725095087115694,-73.71564788428645,-71.09398390790238,-48.82812500000004,-87.05981997271573C-23.940602115713634,-103.02565603752907,44.26184668097886,-99.86107881299296,69.12378726103287,-84.57279333832412C93.98572784108688,-69.28450786365528,101.71595943693208,-27.341844259103752,100.34351848032401,4.669892875297329C98.97107752371593,36.68163000969841,85.07963888399084,90.83859680507962,60.8891415213844,107.4976294680824" fill-opacity="0.25" fill="#584c4c"/></g><g stroke-opacity="1" stroke="#584c4c" transform="matrix(1,0,0,1,511.53284961263256,349.8674671610328)"><path d="M82.75589975703194,-23.583083384672992C83.84770581862084,-5.532477072388165,88.7398756540594,56.38134683360053,70.09471751304211,66.86695749123662C51.449559372024815,77.3525681488727,-4.4212956847994,43.362682340328284,-29.115049089071846,39.33058056114355C-53.80880249334429,35.29847878195881,-74.61382904202007,71.21357449817951,-78.06780291259257,42.67434681612822C-81.52177678316507,14.13511913407693,-73.44083965519037,-117.88628099806411,-49.838892312506815,-131.9047855311642C-26.23694496982326,-145.9232900642643,41.44474913191897,-59.49029740688755,63.54388114350876,-41.436680382472346C85.64301315509856,-23.383063358057143,81.66409369544304,-41.633689696957816,82.75589975703194,-23.583083384672992C83.84770581862084,-5.532477072388165,88.7398756540594,56.38134683360053,70.09471751304211,66.86695749123662" fill-opacity="0.25" fill="#584c4c"/></g><g stroke-opacity="1" stroke="#584c4c" transform="matrix(1,0,0,1,511.16178954289376,464.6283278848727)"><path d="M82.6193441445907,11.077041474748079C81.68905387759835,34.28123795364779,70.31679098829365,66.04889626116756,53.536622138884916,73.97866392628349C36.756453289476184,81.90843159139942,7.096484737419868,74.5439613059376,-18.061668951861705,58.65564746544365C-43.21982264114328,42.76733362494969,-100.40191895888407,1.0432763688846443,-97.4122999968045,-21.35121911668024C-94.42268103472495,-43.74571460224513,-26.212399135658206,-68.39544280953989,-0.12395517938429634,-75.71132544794564C25.964488776889613,-83.0272080863514,45.32781385350981,-79.71124276756375,59.11836374083897,-65.24651494711479C72.90891362816814,-50.78178712666584,83.54963441158304,-12.127155004151636,82.6193441445907,11.077041474748079C81.68905387759835,34.28123795364779,70.31679098829365,66.04889626116756,53.536622138884916,73.97866392628349" fill-opacity="0.25" fill="#584c4c"/></g><g stroke-opacity="1" stroke="#584c4c" transform="matrix(1,0,0,1,625.1553364582138,94.90897911092878)"><path d="M103.05379913410142,-21.494958481309716C102.64030056088116,7.857620238920067,58.161813491551726,72.70513268269015,32.84815946920149,90.38309131929579C7.534505446851259,108.06104995590142,-29.836362724425644,96.13190137288862,-48.82812499999997,84.57279333832409C-67.8198872755743,73.01368530375956,-83.2927111273073,49.21937422468328,-81.10241418424447,21.028443111908587C-78.91211724118163,-7.162488000866105,-55.09160419041753,-66.7793226526588,-35.686343341622944,-84.57279333832406C-16.281082492828357,-102.36626402398932,12.205793829235656,-96.24535347825196,35.329150908523054,-85.7323810020829C58.45250798781045,-75.21940852591385,103.46729770732169,-50.847537201539495,103.05379913410142,-21.494958481309716C102.64030056088116,7.857620238920067,58.161813491551726,72.70513268269015,32.84815946920149,90.38309131929579" fill-opacity="0.25" fill="#584c4c"/></g><g stroke-opacity="1" stroke="#584c4c" transform="matrix(1,0,0,1,627.7025348594697,167.70841651742595)"><path d="M97.65625019461474,19.868578161114378C93.59645848685436,58.794777887723754,69.87251045007781,110.52662812267926,48.828125000000014,117.25441985595215C27.783739549922224,123.98221158922505,-8.18142266614549,77.73624209547165,-28.610062505852,60.23532856075171C-49.038702345558505,42.73441502603177,-73.18592521936694,30.411166438316737,-73.74371403823905,12.2489386476325C-74.30150285711116,-5.913289143051738,-56.445226966551544,-27.312751991464296,-31.956795419084642,-48.73803818335372C-7.468363871617743,-70.16332437524315,51.58470097761243,-127.73721456111542,73.18687524656232,-116.30277850370408C94.78904951551222,-104.86834244629273,101.71604190237512,-19.057621565494998,97.65625019461474,19.868578161114378C93.59645848685436,58.794777887723754,69.87251045007781,110.52662812267926,48.828125000000014,117.25441985595215" fill-opacity="0.25" fill="#584c4c"/></g><g stroke-opacity="1" stroke="#584c4c" transform="matrix(1,0,0,1,590.8320747907825,343.92321874547645)"><path d="M117.33151710295346,-17.14549427701274C115.37532848666638,10.073993343775157,89.4600206567678,42.14129814080039,58.1857424728323,60.45370589873454C26.911464288896813,78.7661136566687,-50.190622694975396,100.49554250350435,-70.31415200065949,92.72895227059216C-90.43768130634359,84.96236203767997,-66.13643786138218,47.46223842757248,-62.555433361272264,13.85416450126138C-58.97442886116236,-19.75390942504972,-70.90784292197121,-89.4665938993987,-48.82812500000004,-108.91949128727441C-26.748407078028873,-128.37238867515012,42.22960048672918,-118.15888599436978,69.92287417055476,-102.86321982599284C97.61614785438034,-87.5675536576159,119.28770571924053,-44.36498189780064,117.33151710295346,-17.14549427701274C115.37532848666638,10.073993343775157,89.4600206567678,42.14129814080039,58.1857424728323,60.45370589873454" fill-opacity="0.25" fill="#584c4c"/></g><g stroke-opacity="1" stroke="#584c4c" transform="matrix(1,0,0,1,615.5115599266526,464.624492657351)"><path d="M73.29727861276,-12.416754345084733C74.85479424217455,20.917277682781545,57.616501646983984,92.77758951434973,37.147847855938274,106.60931658779657C16.679194064892563,120.44104366124341,-34.24095184184827,89.36784961495118,-49.51464413351427,70.57360809559628C-64.78833642518026,51.77936657624139,-54.608725749643405,24.39759459900898,-54.4943058940577,-6.156132528332783C-54.379886038472,-36.70985965567455,-62.544301662251485,-98.2089641599429,-48.82812500000004,-112.74875466845428C-35.1119483377486,-127.28854517696567,7.4485201439909545,-110.11687563329602,27.80275407945096,-93.39487557940109C48.156988014910965,-76.67287552550616,71.73976298334544,-45.75078637295101,73.29727861276,-12.416754345084733C74.85479424217455,20.917277682781545,57.616501646983984,92.77758951434973,37.147847855938274,106.60931658779657" fill-opacity="0.25" fill="#584c4c"/></g><g stroke-opacity="1" stroke="#584c4c" transform="matrix(1,0,0,1,718.6715085163809,89.6386394615319)"><path d="M118.09604303651328,-2.1316282072803006e-14C118.18476519304832,31.87307648957817,102.54517460031725,69.56918257521376,73.08894863443741,85.63299716465036C43.63272266855758,101.69681175408697,-26.504273076379043,112.59821116454034,-58.641312758765714,96.38288753661962C-90.77835244115238,80.1675639086989,-120.5216295505152,15.77064514405411,-119.73328945988261,-11.658944602873987C-118.94494936925003,-39.08853434980209,-85.9595897408218,-52.53689808329149,-53.91127221497017,-68.19465094494896C-21.86295468911853,-83.85240380660643,43.88872981997994,-116.97123693031028,72.55661569522718,-105.6054617728188C101.22450157047442,-94.23968661532732,118.00732087997824,-31.873076489578214,118.09604303651328,-2.1316282072803006e-14C118.18476519304832,31.87307648957817,102.54517460031725,69.56918257521376,73.08894863443741,85.63299716465036" fill-opacity="0.25" fill="#584c4c"/></g><g stroke-opacity="1" stroke="#584c4c" transform="matrix(1,0,0,1,756.9055609825372,183.8118961606515)"><path d="M54.03872065025648,14.503508890111505C57.03496460835099,35.31724576731928,82.17907368005734,28.631493390109306,65.0345994050146,40.3097074648114C47.890125129971864,51.9879215395135,-18.316756514390363,91.75461084230119,-48.82812499999997,84.57279333832409C-79.33949348560958,77.39097583434699,-118.03361150864302,25.409733553723527,-118.03361150864303,-2.781197559051165C-118.03361150864305,-30.972128671825857,-76.34324952751514,-70.94087396509339,-48.82812500000004,-84.57279333832406C-21.313000472484944,-98.20471271155473,29.912661381404796,-101.08543083650781,47.05713565644755,-84.57271379843522C64.20160993149031,-68.05999676036262,51.04247669216197,-6.310227987096265,54.03872065025648,14.503508890111505C57.03496460835099,35.31724576731928,82.17907368005734,28.631493390109306,65.0345994050146,40.3097074648114" fill-opacity="0.25" fill="#584c4c"/></g><g stroke-opacity="1" stroke="#584c4c" transform="matrix(1,0,0,1,704.4602054794354,330.4990910013825)"><path d="M99.08569914326733,10.542459262132084C103.63970410619368,40.648369433135585,50.9236958979129,80.43124902122817,30.45382821341654,96.06266768769686C9.983960528920178,111.69408635416555,-0.7949481584786611,122.00379879223988,-23.733506963710838,104.33097126094422C-46.672065768943014,86.65814372964857,-105.67745540359276,16.937117831575993,-107.17752461797653,-9.974297500077029C-108.6775938323603,-36.885712831730046,-51.11847609231933,-44.70443808926606,-32.73392225001349,-57.13752072897391C-14.349368407707654,-69.57060336868176,-18.84013846302164,-95.85279000350845,3.1297984358585005,-84.57279333832412C25.09973533473864,-73.29279667313979,94.53169418034099,-19.563450908871413,99.08569914326733,10.542459262132084C103.63970410619368,40.648369433135585,50.9236958979129,80.43124902122817,30.45382821341654,96.06266768769686" fill-opacity="0.25" fill="#584c4c"/></g><g stroke-opacity="1" stroke="#584c4c" transform="matrix(1,0,0,1,748.6595907749677,426.2337102507244)"><path d="M120.14891157215419,-25.958336399593957C126.49835792257373,-0.4076855009624687,89.63833196381074,31.477044824146276,63.89879755857709,46.179801315850234C38.15926315334343,60.88255780755419,-10.87245955325384,72.72762661052398,-34.28829485924778,62.258202550629804C-57.704130165241715,51.78877849073562,-73.91095822922621,2.8941657950780915,-76.59621427738652,-16.636743043514862C-79.28147032554683,-36.16765188210782,-67.46622010378405,-39.846023642190616,-50.399831148209664,-54.927250480927924C-33.333442192635275,-70.00847731966523,-2.6226709973341507,-111.9522564228277,25.802119456059827,-107.1241040759387C54.22690990945381,-102.2959517290497,113.79946522173465,-51.50898729822545,120.14891157215419,-25.958336399593957C126.49835792257373,-0.4076855009624687,89.63833196381074,31.477044824146276,63.89879755857709,46.179801315850234" fill-opacity="0.25" fill="#584c4c"/></g><g stroke-opacity="1" stroke="#584c4c" transform="matrix(1,0,0,1,839.4299991865713,84.9724584217507)"><path d="M97.65625,-43.58707872446352C90.1557448423385,-6.284770382657825,46.078451744814856,97.31666430012525,24.600218153835698,118.64364513934721C3.121984562856536,139.9706259785692,-10.837073520235695,103.73480136520647,-31.21315154587498,84.37480631086828C-51.58922957151427,65.0148112565301,-97.89374340135367,26.292968867904435,-97.65625,2.4836748133181317C-97.41875659864633,-21.32561924126817,-57.66477432105367,-40.53864472918204,-29.78819113775289,-58.48095801664955C-1.911607954452112,-76.42327130411707,48.36250891017917,-107.65251812685128,69.60324909980466,-105.17020491148693C90.84398928943014,-102.68789169612259,105.1567551576615,-80.88938706626921,97.65625,-43.58707872446352C90.1557448423385,-6.284770382657825,46.078451744814856,97.31666430012525,24.600218153835698,118.64364513934721" fill-opacity="0.25" fill="#584c4c"/></g><g stroke-opacity="1" stroke="#584c4c" transform="matrix(1,0,0,1,857.1691115044545,167.80390053266422)"><path d="M119.10671965041061,24.149629998931722C119.98366714509197,59.68728272541402,90.61553793550584,103.19606219746626,65.23179311477273,106.75790804094741C39.848048294039614,110.31975388442856,-6.967370845642222,65.56614519711718,-33.19574927398807,45.52070505981866C-59.42412770233392,25.475264922520147,-91.75577190143903,5.0469805801819625,-92.13847745530236,-13.514732782843673C-92.5211830091657,-32.07644614586931,-60.843413530832535,-50.35736252915138,-35.49198259716805,-65.84957511833517C-10.140551663503555,-81.34178770751896,34.20365777208814,-121.4678758374909,59.97010814668459,-106.46800831794641C85.73655852128104,-91.46814079840193,118.22977215572925,-11.388022727550577,119.10671965041061,24.149629998931722C119.98366714509197,59.68728272541402,90.61553793550584,103.19606219746626,65.23179311477273,106.75790804094741" fill-opacity="0.25" fill="#584c4c"/></g><g stroke-opacity="1" stroke="#584c4c" transform="matrix(1,0,0,1,827.6430284225839,295.4333002971256)"><path d="M143.00867424097913,-19.22720147363976C139.44031319101947,3.9459087978889933,62.94126164287619,49.07529439343279,27.41795870024199,63.16831780500782C-8.105344242392214,77.26134121658284,-49.38223483792777,80.60390564992176,-70.13114341482608,65.33093899581038C-90.8800519917244,50.05797234169902,-104.27350471163788,-6.811957935367179,-97.0754927611479,-28.46948211966037C-89.87748081065791,-50.127006303953564,-51.26034133874417,-56.71406249253138,-26.94307171188619,-64.61420610994877C-2.6258020850282158,-72.51434972736615,20.502834007855714,-83.43484459688284,48.828124999999936,-75.87034382416468C77.15341599214416,-68.30584305144652,146.5770352909388,-42.40031174516851,143.00867424097913,-19.22720147363976C139.44031319101947,3.9459087978889933,62.94126164287619,49.07529439343279,27.41795870024199,63.16831780500782" fill-opacity="0.25" fill="#584c4c"/></g><g stroke-opacity="1" stroke="#584c4c" transform="matrix(1,0,0,1,829.4902372012359,441.5370969269516)"><path d="M108.33141864724215,-1.3986760975056711C105.14636977076617,15.597887073531691,74.67635396709967,24.154274247309022,50.705094971385265,42.0127985994347C26.73383597567086,59.87132295156039,-10.769244498480052,105.35194005900138,-35.496135327044264,105.7524700152484C-60.22302615560848,106.15299997149543,-96.0552977993773,78.78724665487624,-97.65625,44.41597833691691C-99.2572022006227,10.044710018957566,-73.01378823582068,-83.07804676522323,-45.1018485307805,-100.47513989250763C-17.189908825740314,-117.87223301979202,44.24317703390402,-76.47932439262314,69.81538823024113,-59.96658042678948C95.38759942657823,-43.45383646095581,111.51646752371812,-18.395239268543033,108.33141864724215,-1.3986760975056711C105.14636977076617,15.597887073531691,74.67635396709967,24.154274247309022,50.705094971385265,42.0127985994347" fill-opacity="0.25" fill="#584c4c"/></g></svg>